<svg width="13" height="13" viewBox="0 0 13 13" fill="none" xmlns="http://www.w3.org/2000/svg">
<path d="M2.28769 1.10064L6.49969 5.31264L10.6944 1.11797C10.7679 1.03973 10.8564 0.977133 10.9547 0.933945C11.053 0.890757 11.159 0.867864 11.2664 0.866638C11.4962 0.866638 11.7166 0.957947 11.8792 1.12048C12.0417 1.28301 12.133 1.50345 12.133 1.7333C12.135 1.83956 12.1153 1.94511 12.0751 2.04347C12.0348 2.14183 11.9749 2.23093 11.899 2.3053L7.66102 6.49997L11.899 10.738C12.0419 10.8777 12.1256 11.0669 12.133 11.2666C12.133 11.4965 12.0417 11.7169 11.8792 11.8795C11.7166 12.042 11.4962 12.1333 11.2664 12.1333C11.1559 12.1379 11.0457 12.1195 10.9428 12.0792C10.8398 12.0389 10.7464 11.9776 10.6684 11.8993L6.49969 7.6873L2.29635 11.8906C2.22312 11.9663 2.13564 12.0267 2.03895 12.0683C1.94227 12.11 1.83829 12.132 1.73302 12.1333C1.50316 12.1333 1.28272 12.042 1.12019 11.8795C0.957661 11.7169 0.866352 11.4965 0.866352 11.2666C0.864331 11.1604 0.884045 11.0548 0.924284 10.9565C0.964523 10.8581 1.02444 10.769 1.10035 10.6946L5.33835 6.49997L1.10035 2.26197C0.957512 2.12223 0.873753 1.933 0.866352 1.7333C0.866352 1.50345 0.957661 1.28301 1.12019 1.12048C1.28272 0.957947 1.50316 0.866638 1.73302 0.866638C1.94102 0.869238 2.14035 0.953305 2.28769 1.10064Z" fill="black" fill-opacity="0.29"/>
</svg>
