<svg width="14" height="14" viewBox="0 0 14 14" fill="none" xmlns="http://www.w3.org/2000/svg">
<path d="M7.00016 13.6667C3.31816 13.6667 0.333496 10.682 0.333496 7.00001C0.333496 3.31801 3.31816 0.333344 7.00016 0.333344C10.6822 0.333344 13.6668 3.31801 13.6668 7.00001C13.6668 10.682 10.6822 13.6667 7.00016 13.6667ZM7.00016 12.3333C8.41465 12.3333 9.77121 11.7714 10.7714 10.7712C11.7716 9.77105 12.3335 8.4145 12.3335 7.00001C12.3335 5.58552 11.7716 4.22897 10.7714 3.22877C9.77121 2.22858 8.41465 1.66668 7.00016 1.66668C5.58567 1.66668 4.22912 2.22858 3.22893 3.22877C2.22873 4.22897 1.66683 5.58552 1.66683 7.00001C1.66683 8.4145 2.22873 9.77105 3.22893 10.7712C4.22912 11.7714 5.58567 12.3333 7.00016 12.3333ZM7.00016 3.66668C7.17697 3.66668 7.34654 3.73691 7.47157 3.86194C7.59659 3.98696 7.66683 4.15653 7.66683 4.33334V7.66668C7.66683 7.84349 7.59659 8.01306 7.47157 8.13808C7.34654 8.26311 7.17697 8.33334 7.00016 8.33334C6.82335 8.33334 6.65378 8.26311 6.52876 8.13808C6.40373 8.01306 6.3335 7.84349 6.3335 7.66668V4.33334C6.3335 4.15653 6.40373 3.98696 6.52876 3.86194C6.65378 3.73691 6.82335 3.66668 7.00016 3.66668ZM7.00016 10.3333C6.82335 10.3333 6.65378 10.2631 6.52876 10.1381C6.40373 10.0131 6.3335 9.84349 6.3335 9.66668C6.3335 9.48987 6.40373 9.3203 6.52876 9.19527C6.65378 9.07025 6.82335 9.00001 7.00016 9.00001C7.17697 9.00001 7.34654 9.07025 7.47157 9.19527C7.59659 9.3203 7.66683 9.48987 7.66683 9.66668C7.66683 9.84349 7.59659 10.0131 7.47157 10.1381C7.34654 10.2631 7.17697 10.3333 7.00016 10.3333Z" fill="#F65B2A"/>
</svg>
