<svg width="478" height="420" viewBox="0 0 478 420" fill="none" xmlns="http://www.w3.org/2000/svg">
<path d="M145.717 408C55.6539 367.873 25.2783 241.721 61.5978 150.278C101.879 48.8633 211.701 21.6044 230.574 17.3138C296.234 2.41022 410.896 4.70615 456.31 80.4455C506.788 164.624 434.493 277.425 384.639 328.295C371.575 341.616 255.394 456.857 145.717 408Z" fill="#F8F8F8"/>
<path d="M382.732 294.832L183.562 233.739L233.759 51.8702L440.105 86.9727L382.732 294.832ZM185.631 232.609L381.57 292.716L437.985 88.3188L234.979 53.7862L185.631 232.609Z" fill="#444444"/>
<path d="M87.0166 415.765L86.6189 415.022L17.9751 286.982L98.1698 243.989L111.566 268.967L167.213 372.769L166.471 373.167L87.0166 415.765ZM20.2562 287.673L87.7067 413.482L164.932 372.075L110.08 269.758L97.4827 246.27L87.4708 251.638L20.2562 287.673Z" fill="#444444"/>
<g style="mix-blend-mode:multiply" opacity="0.2">
<path d="M421.807 267.157C452.597 267.157 477.557 242.197 477.557 211.408C477.557 180.618 452.597 155.658 421.807 155.658C391.018 155.658 366.058 180.618 366.058 211.408C366.058 242.197 391.018 267.157 421.807 267.157Z" fill="#B6B6B6"/>
</g>
<path d="M416.288 267.157C447.077 267.157 472.037 242.197 472.037 211.408C472.037 180.618 447.077 155.658 416.288 155.658C385.498 155.658 360.538 180.618 360.538 211.408C360.538 242.197 385.498 267.157 416.288 267.157Z" fill="#F9C067"/>
<g style="mix-blend-mode:multiply" opacity="0.2">
<path d="M369.311 283.185C369.311 283.185 428.548 101.721 426.864 101.721C425.179 101.721 407.072 98.3516 407.072 98.3516L369.311 283.185Z" fill="#B6B6B6"/>
</g>
<g style="mix-blend-mode:multiply" opacity="0.2">
<path d="M260.039 383.29L330.391 271.392L260.039 251.693V383.29Z" fill="#B6B6B6"/>
</g>
<g style="mix-blend-mode:multiply" opacity="0.2">
<path d="M311.663 324.479C306.914 324.479 302.494 325.645 298.794 327.645L287.082 318.277C289.079 315.418 290.228 312.104 290.228 308.566C290.228 297.82 279.691 289.109 266.684 289.109C253.677 289.109 243.138 297.82 243.138 308.566C243.138 319.313 253.675 328.022 266.684 328.022C273.083 328.022 278.883 325.91 283.126 322.486L293.94 331.134C290.319 334.556 288.119 339.032 288.119 343.934C288.119 354.681 298.656 363.391 311.663 363.391C324.67 363.391 335.207 354.681 335.207 343.934C335.207 333.188 324.666 324.479 311.663 324.479Z" fill="#B6B6B6"/>
</g>
<path d="M147.4 368.963L68.6894 411.161L0.443359 283.866L68.3985 247.433L79.154 241.668L92.1505 265.903L147.4 368.963Z" fill="#3D3D3D"/>
<path d="M27.9187 285.809L31.0532 284.131L29.7086 281.625L20.4194 286.609L21.7551 289.111L24.9104 287.422L30.3527 297.575L33.3566 295.966L27.9187 285.809Z" fill="#D5D5D5"/>
<path d="M44.5678 281.79C43.6536 280.092 42.3941 278.824 40.7893 277.986C39.1844 277.148 37.498 277.202 35.7299 278.149C33.9816 279.085 32.9659 280.425 32.683 282.168C32.4 283.911 32.7552 285.708 33.7486 287.557C34.7222 289.372 36.0183 290.67 37.637 291.45C39.2557 292.229 40.9169 292.163 42.6207 291.251C44.4016 290.295 45.4173 288.939 45.6676 287.181C45.9199 285.426 45.5489 283.63 44.5678 281.79ZM41.4082 288.783C39.8528 289.617 38.3419 288.664 36.8756 285.926C35.4093 283.187 35.4538 281.406 37.0092 280.583C38.5141 279.778 40.0012 280.743 41.4705 283.48C42.9398 286.217 42.919 287.984 41.4082 288.783Z" fill="#D5D5D5"/>
<path d="M61.6205 272.626C60.8458 271.185 59.9009 270.157 58.7859 269.542C57.6708 268.928 56.6092 268.609 55.6009 268.587C54.5932 268.566 53.305 268.974 51.7288 269.821L47.8701 271.899L54.657 284.554L59.0129 282.221C60.8879 281.214 62.0351 279.817 62.4546 278.029C62.8741 276.241 62.5961 274.44 61.6205 272.626ZM59.2652 277.45C59.1732 278.538 58.588 279.371 57.5095 279.949L56.2881 280.605L52.0286 272.661L53.2753 271.991C53.826 271.674 54.4521 271.512 55.0874 271.522C55.6722 271.549 56.291 271.81 56.9411 272.298C57.6006 272.806 58.1423 273.45 58.5291 274.186C59.1094 275.277 59.3587 276.358 59.2652 277.45Z" fill="#D5D5D5"/>
<path d="M73.7667 266.135C72.9278 264.51 71.6098 263.182 69.9911 262.331C69.0993 261.847 68.0787 261.654 67.0718 261.779C66.3204 261.882 65.5947 262.123 64.9317 262.491C63.1834 263.43 62.1683 264.771 61.8863 266.515C61.6043 268.258 61.958 270.054 62.9474 271.902C63.7152 273.326 64.6774 274.43 65.8341 275.213C66.1537 275.433 66.4902 275.628 66.8403 275.795C68.458 276.575 70.1192 276.507 71.824 275.593C73.6049 274.64 74.6201 273.285 74.8694 271.527C75.1188 269.768 74.7512 267.971 73.7667 266.135ZM70.61 273.128C69.1199 273.929 67.6694 273.085 66.2585 270.596C66.1962 270.491 66.1368 270.381 66.0775 270.273C64.6111 267.538 64.6562 265.754 66.2125 264.922C66.3987 264.82 66.5986 264.744 66.8062 264.698C68.1092 264.401 69.3984 265.44 70.6738 267.815C72.1371 270.554 72.1159 272.325 70.61 273.128Z" fill="#D5D5D5"/>
<path d="M38.0171 322.762C42.3568 321.921 45.1928 317.721 44.3516 313.381C43.5105 309.042 39.3106 306.206 34.9709 307.047C30.6313 307.888 27.7952 312.088 28.6364 316.428C29.4776 320.767 33.6775 323.603 38.0171 322.762Z" fill="#D5D5D5"/>
<path d="M90.7569 289.594L51.4751 310.654C51.0896 310.861 50.6672 310.989 50.2319 311.033C49.7967 311.076 49.3572 311.033 48.9385 310.907C48.5198 310.78 48.1302 310.573 47.7918 310.295C47.4534 310.018 47.1729 309.677 46.9663 309.292C46.7597 308.906 46.631 308.484 46.5877 308.049C46.5443 307.613 46.5871 307.174 46.7137 306.755C46.8402 306.336 47.0479 305.947 47.325 305.608C47.6022 305.27 47.9432 304.99 48.3287 304.783L87.6106 283.723C87.9959 283.516 88.4183 283.387 88.8535 283.344C89.2887 283.3 89.7283 283.343 90.147 283.469C90.5657 283.596 90.9554 283.803 91.2939 284.081C91.6323 284.358 91.9128 284.699 92.1193 285.084C92.5367 285.863 92.6276 286.776 92.3721 287.621C92.1166 288.467 91.5356 289.177 90.7569 289.594Z" fill="#D5D5D5"/>
<path d="M48.1019 344.42C52.522 344.362 56.0582 340.732 56.0003 336.312C55.9425 331.892 52.3124 328.356 47.8924 328.413C43.4723 328.471 39.9361 332.101 39.9939 336.521C40.0518 340.941 43.6819 344.478 48.1019 344.42Z" fill="#D5D5D5"/>
<path d="M102.283 311.094L63.0013 332.161C62.6159 332.368 62.1934 332.496 61.7581 332.54C61.3229 332.583 60.8833 332.54 60.4645 332.414C60.0458 332.287 59.6561 332.08 59.3178 331.802C58.9794 331.525 58.699 331.184 58.4925 330.798C58.0751 330.02 57.984 329.108 58.2392 328.262C58.4945 327.416 59.0751 326.707 59.8535 326.289L99.1368 305.23C99.5223 305.023 99.9447 304.894 100.38 304.851C100.815 304.808 101.255 304.851 101.673 304.977C102.092 305.104 102.482 305.311 102.82 305.588C103.159 305.866 103.439 306.207 103.646 306.592C104.061 307.37 104.15 308.281 103.895 309.124C103.639 309.968 103.06 310.676 102.283 311.094Z" fill="#D5D5D5"/>
<path d="M59.5356 365.914C63.9561 365.914 67.5395 362.331 67.5395 357.91C67.5395 353.49 63.9561 349.906 59.5356 349.906C55.1152 349.906 51.5317 353.49 51.5317 357.91C51.5317 362.331 55.1152 365.914 59.5356 365.914Z" fill="#D5D5D5"/>
<path d="M113.809 332.593L74.5253 353.652C73.7469 354.07 72.8346 354.161 71.989 353.906C71.1435 353.65 70.4339 353.07 70.0165 352.291C69.8096 351.906 69.6807 351.484 69.6372 351.049C69.5936 350.613 69.6362 350.174 69.7626 349.755C69.889 349.336 70.0967 348.947 70.3737 348.608C70.6508 348.27 70.9919 347.989 71.3774 347.783L110.661 326.721C111.046 326.515 111.469 326.386 111.904 326.343C112.339 326.299 112.779 326.342 113.197 326.469C113.616 326.595 114.006 326.803 114.344 327.08C114.682 327.357 114.963 327.698 115.17 328.084C115.587 328.862 115.678 329.775 115.423 330.62C115.168 331.466 114.587 332.175 113.809 332.593Z" fill="#D5D5D5"/>
<path d="M71.061 387.413C75.4814 387.413 79.0649 383.83 79.0649 379.409C79.0649 374.989 75.4814 371.405 71.061 371.405C66.6406 371.405 63.0571 374.989 63.0571 379.409C63.0571 383.83 66.6406 387.413 71.061 387.413Z" fill="#D5D5D5"/>
<path d="M125.336 354.092L86.0557 375.151C85.2773 375.569 84.365 375.66 83.5194 375.405C82.6739 375.149 81.9643 374.569 81.5469 373.79C81.3403 373.405 81.2116 372.982 81.1683 372.547C81.1249 372.112 81.1677 371.673 81.2942 371.254C81.4207 370.835 81.6285 370.445 81.9056 370.107C82.1827 369.769 82.5238 369.488 82.9093 369.282L122.191 348.222C122.97 347.804 123.882 347.713 124.727 347.969C125.573 348.224 126.282 348.804 126.7 349.583C126.906 349.968 127.035 350.391 127.078 350.826C127.122 351.262 127.079 351.701 126.952 352.12C126.825 352.538 126.617 352.928 126.34 353.266C126.063 353.605 125.722 353.885 125.336 354.092Z" fill="#D5D5D5"/>
<g style="mix-blend-mode:multiply" opacity="0.2">
<path d="M92.1503 265.903L81.6397 286.925L76.475 297.254L62.729 324.742L60.9258 328.344L61.1825 325.571L63.1371 304.403L63.8703 296.45L65.8338 275.213L66.2582 270.596L66.8014 264.698L67.0715 261.779L68.3984 247.433L79.1538 241.668L92.1503 265.903Z" fill="#B6B6B6"/>
</g>
<path d="M401.361 238.216C400.333 238.116 399.335 237.814 398.424 237.328C397.513 236.842 396.707 236.181 396.052 235.382L380.994 217.055C379.735 215.437 379.158 213.392 379.385 211.355C379.612 209.318 380.625 207.449 382.209 206.148C383.793 204.847 385.822 204.215 387.864 204.388C389.907 204.56 391.801 205.523 393.144 207.071L403.211 219.326L434.554 193.573C435.348 192.882 436.272 192.357 437.271 192.029C438.271 191.702 439.327 191.578 440.375 191.665C441.423 191.753 442.444 192.05 443.375 192.538C444.307 193.027 445.131 193.698 445.799 194.511C446.467 195.324 446.965 196.262 447.264 197.271C447.562 198.28 447.656 199.338 447.538 200.384C447.42 201.429 447.094 202.441 446.578 203.358C446.063 204.275 445.369 205.079 444.537 205.724L407.119 236.466C406.321 237.122 405.402 237.614 404.414 237.915C403.426 238.215 402.388 238.317 401.361 238.216Z" fill="white"/>
<path d="M318.052 353.575C317.775 353.324 317.549 353.021 317.389 352.682C317.229 352.344 317.137 351.978 317.119 351.604C317.1 351.23 317.156 350.856 317.282 350.504C317.408 350.152 317.602 349.828 317.853 349.55C320.59 346.528 315.998 341.776 315.95 341.729L249.016 281.086C248.739 280.835 248.514 280.531 248.354 280.193C248.194 279.855 248.102 279.488 248.084 279.114C248.065 278.74 248.121 278.367 248.247 278.014C248.373 277.662 248.567 277.338 248.818 277.06C249.07 276.783 249.373 276.558 249.711 276.398C250.05 276.238 250.416 276.146 250.79 276.127C251.164 276.109 251.538 276.164 251.89 276.291C252.242 276.417 252.567 276.611 252.844 276.862L319.901 337.621C322.939 340.712 327.123 347.811 322.078 353.378C321.571 353.938 320.861 354.273 320.106 354.31C319.351 354.347 318.612 354.083 318.052 353.575Z" fill="#636466"/>
<path d="M251.518 293.291C251.796 293.543 252.12 293.737 252.472 293.863C252.825 293.989 253.198 294.044 253.572 294.026C253.946 294.007 254.312 293.915 254.65 293.755C254.989 293.595 255.292 293.37 255.543 293.093C258.282 290.072 263.463 294.176 263.515 294.218L330.449 354.868C330.725 355.127 331.05 355.328 331.404 355.46C331.759 355.592 332.137 355.652 332.515 355.637C332.893 355.621 333.264 355.53 333.607 355.37C333.95 355.21 334.257 354.982 334.511 354.702C334.766 354.421 334.961 354.093 335.087 353.736C335.213 353.379 335.267 353.001 335.245 352.623C335.223 352.245 335.126 351.875 334.96 351.535C334.793 351.195 334.561 350.892 334.276 350.643L267.219 289.884C263.844 287.163 256.368 283.698 251.325 289.265C250.817 289.825 250.552 290.563 250.588 291.318C250.624 292.073 250.959 292.783 251.518 293.291Z" fill="#636466"/>
<path opacity="0.28" d="M281.716 308.279C290.018 299.977 290.018 286.517 281.716 278.215C273.414 269.913 259.954 269.913 251.652 278.215C243.35 286.517 243.35 299.977 251.652 308.279C259.954 316.581 273.414 316.581 281.716 308.279Z" fill="#F2F2F2"/>
<path opacity="0.28" d="M331.929 353.776C340.231 345.474 340.231 332.014 331.929 323.712C323.627 315.41 310.167 315.41 301.865 323.712C293.563 332.014 293.563 345.474 301.865 353.776C310.167 362.078 323.627 362.078 331.929 353.776Z" fill="#F2F2F2"/>
<path d="M333.484 320.436C325.233 312.959 313.245 312.125 304.177 317.575C303.249 314.06 301.32 310.889 298.626 308.448C295.932 306.007 292.587 304.4 288.998 303.821C293.53 294.262 291.536 282.428 283.269 274.937C273.177 265.789 257.514 266.574 248.377 276.657C239.241 286.741 240.001 302.401 250.097 311.549C254.146 315.196 259.278 317.415 264.709 317.866C268.477 318.15 272.26 317.574 275.774 316.182C279.287 314.79 282.438 312.618 284.989 309.831C285.167 309.633 285.359 309.422 285.523 309.212C286.102 309.224 286.669 309.25 287.236 309.302C290.172 309.629 292.811 310.764 294.853 312.613C296.895 314.463 298.283 316.978 298.895 319.866C299.011 320.431 299.094 321.003 299.142 321.577C298.949 321.761 298.771 321.957 298.591 322.155C294.297 326.897 292.018 333.125 292.236 339.519C292.3 341.786 292.678 344.034 293.36 346.198C294.67 350.364 297.07 354.105 300.311 357.032C310.403 366.18 326.055 365.408 335.203 355.312C344.351 345.215 343.581 329.589 333.484 320.436ZM265.808 312.216C262.209 312.051 258.73 310.865 255.779 308.798C252.828 306.73 250.526 303.866 249.141 300.539C247.756 297.213 247.346 293.561 247.958 290.01C248.571 286.459 250.18 283.156 252.6 280.485C259.631 272.726 271.668 272.119 279.44 279.163C286.467 285.53 287.616 296.006 282.546 303.695L282.533 303.709C282.006 304.52 281.414 305.287 280.764 306.003C280.389 306.424 279.993 306.825 279.577 307.205C277.045 309.563 273.904 311.166 270.51 311.836C268.963 312.157 267.381 312.286 265.802 312.22L265.808 312.216ZM304.145 352.823C300.868 349.866 298.732 345.854 298.11 341.484C297.887 339.921 297.859 338.336 298.026 336.766C298.357 333.323 299.642 330.04 301.736 327.287C302.074 326.834 302.434 326.399 302.817 325.984C303.464 325.265 304.169 324.6 304.924 323.995L304.937 323.982C312.091 318.182 322.63 318.295 329.657 324.66C333.392 328.044 335.629 332.773 335.877 337.806C336.125 342.84 334.363 347.766 330.979 351.5C327.595 355.235 322.866 357.472 317.833 357.72C312.799 357.968 307.873 356.207 304.139 352.823H304.145Z" fill="#636466"/>
<path d="M421.807 93.2951L369.833 281.596C369.259 283.72 368.271 285.709 366.926 287.45C365.58 289.19 363.904 290.647 361.994 291.738C360.084 292.829 357.977 293.531 355.794 293.805C353.611 294.078 351.396 293.918 349.276 293.333C347.155 292.747 345.171 291.749 343.438 290.395C341.705 289.04 340.256 287.357 339.175 285.441C338.095 283.525 337.403 281.414 337.141 279.23C336.879 277.046 337.051 274.831 337.647 272.714L347.058 238.61L180.134 192.547L217.132 58.476L421.807 93.2951Z" fill="white"/>
<g style="mix-blend-mode:multiply" opacity="0.2">
<path d="M355.191 130.652L354.029 134.864L207.231 94.3473L211.425 79.1484C236.477 88.0294 355.191 130.652 355.191 130.652Z" fill="#B6B6B6"/>
</g>
<g style="mix-blend-mode:multiply" opacity="0.2">
<path d="M364.878 135.161C359.979 133.803 354.766 134.137 350.081 136.108L328.288 215.079L351.761 221.558L337.643 272.718C335.961 278.811 336.893 284.773 339.673 288.48C344.004 286.686 347.926 281.908 349.654 275.65L363.674 224.845L380.445 164.07L380.718 163.082C381.511 160.208 381.731 157.207 381.364 154.249C380.997 151.29 380.052 148.433 378.581 145.84C377.11 143.248 375.143 140.97 372.791 139.138C370.44 137.305 367.751 135.954 364.878 135.161Z" fill="#B6B6B6"/>
</g>
<path d="M349.299 293.253L172.631 244.501C166.678 242.857 161.621 238.916 158.573 233.545C155.525 228.173 154.736 221.811 156.379 215.857L192.294 85.7097L331.556 124.138L325.518 146.019C326.935 140.85 330.144 136.353 334.572 133.332C335.095 132.969 335.639 132.63 336.194 132.316C340.098 130.1 344.572 129.092 349.049 129.419C353.527 129.746 357.806 131.393 361.348 134.153C364.889 136.912 367.532 140.66 368.943 144.921C370.355 149.183 370.471 153.767 369.276 158.095L337.645 272.718C336.468 276.987 337.034 281.548 339.219 285.399C341.405 289.25 345.03 292.075 349.299 293.253Z" fill="#787878"/>
<path d="M322.021 285.725L289.444 276.736L325.657 145.511C327.141 140.547 330.289 136.246 334.572 133.331C345.852 137.141 352.382 149.245 349.176 160.86L318.858 270.718C318.147 273.29 318.064 275.995 318.614 278.606C319.164 281.218 320.332 283.659 322.021 285.725Z" fill="#3D3D3D"/>
<path d="M260.039 383.29L325.516 146.014C327.119 140.212 330.961 135.284 336.196 132.313C341.432 129.342 347.633 128.572 353.437 130.171L154.153 75.1769C148.392 73.5896 142.238 74.3552 137.042 77.3054C131.846 80.2556 128.035 85.1488 126.447 90.9086L60.9243 328.344L260.039 383.29Z" fill="white"/>
<path d="M155.531 131.715C159.72 127.526 159.72 120.735 155.531 116.546C151.342 112.357 144.551 112.357 140.363 116.546C136.174 120.735 136.174 127.526 140.363 131.715C144.551 135.903 151.342 135.903 155.531 131.715Z" fill="#E7E7E7"/>
<path d="M293.475 169.854L170.292 135.86C168.953 135.486 167.816 134.598 167.129 133.388C166.443 132.179 166.263 130.747 166.629 129.405L166.69 129.183C167.064 127.844 167.953 126.707 169.162 126.021C170.372 125.334 171.803 125.154 173.145 125.52L296.327 159.506C297.667 159.88 298.804 160.769 299.49 161.978C300.176 163.188 300.356 164.619 299.99 165.961L299.928 166.184C299.555 167.524 298.667 168.662 297.458 169.35C296.249 170.037 294.817 170.219 293.475 169.854Z" fill="#E7E7E7"/>
<path d="M138.164 170.303C144.088 170.303 148.89 165.501 148.89 159.578C148.89 153.654 144.088 148.852 138.164 148.852C132.241 148.852 127.438 153.654 127.438 159.578C127.438 165.501 132.241 170.303 138.164 170.303Z" fill="#E7E7E7"/>
<path d="M283.693 205.301L160.511 171.314C159.171 170.94 158.034 170.051 157.348 168.842C156.661 167.632 156.482 166.2 156.848 164.858L156.909 164.637C157.282 163.298 158.171 162.161 159.38 161.474C160.59 160.788 162.022 160.608 163.363 160.974L286.546 194.961C287.885 195.335 289.022 196.223 289.708 197.433C290.394 198.642 290.574 200.074 290.208 201.415L290.146 201.636C289.773 202.976 288.885 204.113 287.676 204.8C286.466 205.487 285.035 205.667 283.693 205.301Z" fill="#E7E7E7"/>
<path d="M128.381 205.752C134.305 205.752 139.107 200.95 139.107 195.026C139.107 189.102 134.305 184.3 128.381 184.3C122.457 184.3 117.655 189.102 117.655 195.026C117.655 200.95 122.457 205.752 128.381 205.752Z" fill="#E7E7E7"/>
<path d="M273.97 230.832L151.293 196.329C148.51 195.546 145.621 197.168 144.838 199.95L144.776 200.171C143.993 202.953 145.614 205.843 148.397 206.626L271.074 241.129C273.857 241.911 276.747 240.29 277.529 237.508L277.591 237.287C278.374 234.504 276.753 231.615 273.97 230.832Z" fill="#E7E7E7"/>
<path d="M126.184 238.058C130.373 233.869 130.373 227.078 126.184 222.889C121.996 218.701 115.205 218.701 111.016 222.889C106.827 227.078 106.827 233.869 111.016 238.058C115.205 242.246 121.996 242.246 126.184 238.058Z" fill="#E7E7E7"/>
<path d="M264.129 276.197L140.947 242.203C139.608 241.829 138.471 240.941 137.784 239.731C137.098 238.522 136.918 237.09 137.284 235.749L137.346 235.526C137.72 234.187 138.609 233.05 139.818 232.364C141.028 231.678 142.459 231.498 143.801 231.863L266.983 265.857C268.322 266.231 269.459 267.12 270.145 268.329C270.832 269.539 271.012 270.97 270.646 272.312L270.584 272.534C270.21 273.874 269.321 275.01 268.112 275.697C266.902 276.383 265.471 276.563 264.129 276.197Z" fill="#E7E7E7"/>
<path d="M116.402 273.506C120.59 269.317 120.59 262.526 116.402 258.337C112.213 254.148 105.422 254.149 101.233 258.337C97.0445 262.526 97.0445 269.317 101.233 273.506C105.422 277.694 112.213 277.694 116.402 273.506Z" fill="#E7E7E7"/>
<path d="M254.355 311.644L131.172 277.658C129.834 277.283 128.697 276.394 128.011 275.185C127.325 273.976 127.144 272.545 127.51 271.203L127.572 270.981C127.946 269.641 128.834 268.504 130.044 267.818C131.253 267.131 132.685 266.952 134.026 267.318L257.209 301.304C258.548 301.678 259.686 302.566 260.372 303.776C261.059 304.985 261.238 306.417 260.872 307.759L260.811 307.98C260.438 309.32 259.549 310.458 258.339 311.145C257.129 311.831 255.697 312.011 254.355 311.644Z" fill="#E7E7E7"/>
<path d="M106.619 308.954C110.808 304.765 110.808 297.974 106.619 293.785C102.43 289.597 95.6392 289.597 91.4505 293.785C87.2618 297.974 87.2618 304.765 91.4505 308.954C95.6392 313.143 102.43 313.143 106.619 308.954Z" fill="#E7E7E7"/>
<path d="M244.56 347.093L121.377 313.099C120.038 312.725 118.901 311.836 118.215 310.627C117.529 309.417 117.349 307.986 117.715 306.644L117.777 306.423C118.15 305.083 119.039 303.946 120.248 303.26C121.458 302.573 122.89 302.394 124.231 302.76L247.414 336.747C248.753 337.121 249.89 338.01 250.577 339.219C251.263 340.429 251.443 341.861 251.077 343.203L251.016 343.424C250.643 344.765 249.755 345.903 248.545 346.591C247.335 347.278 245.902 347.459 244.56 347.093Z" fill="#E7E7E7"/>
<path d="M133.083 165.991C132.719 165.891 132.378 165.721 132.08 165.489C131.782 165.257 131.533 164.969 131.348 164.64L127.071 157.101C126.709 156.439 126.622 155.662 126.828 154.936C127.034 154.211 127.517 153.596 128.173 153.223C128.829 152.851 129.605 152.752 130.334 152.946C131.062 153.141 131.685 153.615 132.068 154.264L134.927 159.311L147.82 151.995C148.149 151.802 148.512 151.676 148.89 151.624C149.268 151.573 149.652 151.597 150.02 151.696C150.388 151.794 150.733 151.965 151.035 152.198C151.336 152.431 151.588 152.722 151.777 153.053C151.965 153.385 152.085 153.75 152.131 154.129C152.176 154.507 152.146 154.891 152.041 155.257C151.937 155.624 151.761 155.966 151.523 156.264C151.285 156.562 150.991 156.809 150.656 156.992L135.264 165.726C134.936 165.912 134.574 166.031 134.2 166.076C133.826 166.122 133.446 166.093 133.083 165.991Z" fill="#F9C067"/>
<path d="M114.096 234.802C113.732 234.702 113.392 234.531 113.094 234.299C112.796 234.067 112.547 233.778 112.362 233.45L108.084 225.912C107.891 225.584 107.765 225.22 107.713 224.842C107.662 224.465 107.686 224.081 107.785 223.712C107.883 223.344 108.054 222.999 108.287 222.698C108.52 222.396 108.811 222.144 109.142 221.956C109.473 221.767 109.839 221.647 110.218 221.602C110.596 221.556 110.98 221.586 111.346 221.691C111.713 221.795 112.055 221.971 112.353 222.209C112.651 222.447 112.898 222.742 113.081 223.076L115.941 228.122L128.834 220.805C129.162 220.619 129.524 220.499 129.898 220.453C130.273 220.406 130.653 220.434 131.016 220.535C131.38 220.635 131.721 220.806 132.018 221.038C132.316 221.27 132.565 221.558 132.751 221.886C132.937 222.215 133.057 222.576 133.104 222.951C133.15 223.325 133.122 223.705 133.022 224.069C132.921 224.433 132.75 224.773 132.518 225.071C132.286 225.369 131.998 225.618 131.67 225.804L116.278 234.538C115.95 234.723 115.588 234.842 115.214 234.887C114.839 234.933 114.46 234.904 114.096 234.802Z" fill="#F9C067"/>
<path d="M104.025 271.289C103.661 271.189 103.32 271.018 103.022 270.786C102.725 270.554 102.476 270.266 102.29 269.937L98.0125 262.398C97.6364 261.735 97.539 260.95 97.7418 260.215C97.9445 259.481 98.4308 258.857 99.0937 258.481C99.7565 258.104 100.542 258.007 101.276 258.21C102.011 258.413 102.635 258.899 103.011 259.562L105.869 264.608L118.764 257.293C119.092 257.096 119.457 256.968 119.836 256.914C120.215 256.861 120.601 256.883 120.971 256.981C121.341 257.079 121.688 257.249 121.991 257.483C122.294 257.717 122.547 258.009 122.736 258.341C122.925 258.674 123.046 259.042 123.091 259.422C123.135 259.802 123.104 260.187 122.998 260.555C122.892 260.923 122.713 261.266 122.473 261.564C122.233 261.861 121.935 262.108 121.598 262.29L106.208 271.015C105.88 271.202 105.518 271.322 105.144 271.37C104.769 271.417 104.389 271.389 104.025 271.289Z" fill="#F9C067"/>
<path d="M94.5325 305.69C94.1686 305.59 93.828 305.42 93.5302 305.188C93.2325 304.956 92.9835 304.668 92.7976 304.339L88.5188 296.8C88.1427 296.137 88.0453 295.352 88.2481 294.617C88.4509 293.883 88.9372 293.259 89.6 292.883C90.2629 292.507 91.048 292.409 91.7826 292.612C92.5173 292.815 93.1413 293.301 93.5174 293.964L96.3773 299.01L109.27 291.693C109.933 291.317 110.718 291.22 111.452 291.422C112.187 291.625 112.811 292.111 113.187 292.774C113.563 293.437 113.661 294.222 113.458 294.957C113.255 295.692 112.769 296.316 112.106 296.692L96.7142 305.426C96.3859 305.611 96.0242 305.73 95.6497 305.776C95.2753 305.821 94.8956 305.792 94.5325 305.69Z" fill="#F9C067"/>
<path d="M262.818 25.7318C269.923 25.7318 275.683 19.9715 275.683 12.8659C275.683 5.76025 269.923 0 262.818 0C255.712 0 249.952 5.76025 249.952 12.8659C249.952 19.9715 255.712 25.7318 262.818 25.7318Z" fill="#B6B6B6"/>
<path d="M25.9288 186.569C27.1693 180.875 23.5588 175.253 17.8646 174.013C12.1703 172.772 6.54864 176.382 5.30814 182.077C4.06764 187.771 7.67809 193.393 13.3723 194.633C19.0665 195.874 24.6883 192.263 25.9288 186.569Z" fill="#B6B6B6"/>
<path d="M398.104 370.611C405.21 370.611 410.97 364.851 410.97 357.746C410.97 350.64 405.21 344.88 398.104 344.88C390.999 344.88 385.238 350.64 385.238 357.746C385.238 364.851 390.999 370.611 398.104 370.611Z" fill="#B6B6B6"/>
</svg>
