<svg width="12" height="13" viewBox="0 0 12 13" fill="none" xmlns="http://www.w3.org/2000/svg">
<path d="M6 0C6.19891 0 6.38968 0.0856024 6.53033 0.237976C6.67098 0.390349 6.75 0.597012 6.75 0.8125V5.6875H11.25C11.4489 5.6875 11.6397 5.7731 11.7803 5.92548C11.921 6.07785 12 6.28451 12 6.5C12 6.71549 11.921 6.92215 11.7803 7.07452C11.6397 7.2269 11.4489 7.3125 11.25 7.3125H6.75V12.1875C6.75 12.403 6.67098 12.6097 6.53033 12.762C6.38968 12.9144 6.19891 13 6 13C5.80109 13 5.61032 12.9144 5.46967 12.762C5.32902 12.6097 5.25 12.403 5.25 12.1875V7.3125H0.75C0.551088 7.3125 0.360322 7.2269 0.21967 7.07452C0.0790176 6.92215 0 6.71549 0 6.5C0 6.28451 0.0790176 6.07785 0.21967 5.92548C0.360322 5.7731 0.551088 5.6875 0.75 5.6875H5.25V0.8125C5.25 0.597012 5.32902 0.390349 5.46967 0.237976C5.61032 0.0856024 5.80109 0 6 0V0Z" fill="#329C89"/>
</svg>
