<svg width="15" height="15" viewBox="0 0 15 15" fill="none" xmlns="http://www.w3.org/2000/svg">
<path fill-rule="evenodd" clip-rule="evenodd" d="M13.738 4.40004L13.2971 3.63497C12.9241 2.98761 12.0975 2.76429 11.4493 3.13574C11.1407 3.31752 10.7725 3.36909 10.4259 3.27908C10.0792 3.18908 9.78262 2.96489 9.60146 2.65595C9.48492 2.45959 9.42229 2.23593 9.41992 2.00759C9.43043 1.64151 9.29232 1.28676 9.03705 1.02416C8.78178 0.76156 8.43108 0.613466 8.06485 0.613617H7.17659C6.8178 0.613617 6.4738 0.756586 6.2207 1.0109C5.9676 1.26521 5.82628 1.6099 5.82801 1.96869C5.81737 2.70947 5.21379 3.30439 4.47293 3.30431C4.2446 3.30194 4.02094 3.23932 3.82457 3.12277C3.17633 2.75132 2.34974 2.97465 1.97675 3.62201L1.50344 4.40004C1.13091 5.04659 1.35119 5.87266 1.9962 6.24787C2.41546 6.48992 2.67374 6.93727 2.67374 7.4214C2.67374 7.90552 2.41546 8.35287 1.9962 8.59493C1.35201 8.9676 1.13149 9.79167 1.50344 10.4363L1.95081 11.2078C2.12557 11.5232 2.41879 11.7559 2.76559 11.8544C3.11238 11.953 3.48415 11.9093 3.79864 11.733C4.1078 11.5526 4.47621 11.5032 4.82198 11.5957C5.16776 11.6882 5.46224 11.9151 5.63998 12.2257C5.75653 12.4221 5.81915 12.6458 5.82152 12.8741C5.82152 13.6225 6.42821 14.2292 7.17659 14.2292H8.06485C8.81071 14.2292 9.41635 13.6264 9.41992 12.8806C9.41819 12.5207 9.5604 12.175 9.8149 11.9205C10.0694 11.666 10.4151 11.5238 10.775 11.5255C11.0028 11.5316 11.2255 11.594 11.4234 11.7071C12.0699 12.0796 12.896 11.8593 13.2712 11.2143L13.738 10.4363C13.9187 10.1261 13.9683 9.75674 13.8758 9.40991C13.7833 9.06309 13.5564 8.76744 13.2452 8.58845C12.9341 8.40945 12.7072 8.11381 12.6147 7.76698C12.5222 7.42015 12.5718 7.05077 12.7525 6.74062C12.87 6.53547 13.0401 6.36537 13.2452 6.24787C13.8864 5.87286 14.1062 5.05162 13.738 4.40652V4.40004Z" stroke="#9A9A9A" stroke-linecap="round" stroke-linejoin="round"/>
<path d="M7.624 9.28856C8.65521 9.28856 9.49117 8.4526 9.49117 7.4214C9.49117 6.39019 8.65521 5.55423 7.624 5.55423C6.5928 5.55423 5.75684 6.39019 5.75684 7.4214C5.75684 8.4526 6.5928 9.28856 7.624 9.28856Z" stroke="#9A9A9A" stroke-linecap="round" stroke-linejoin="round"/>
</svg>
